<mxfile host="app.diagrams.net" modified="2024-06-30T11:43:26.422Z" agent="Mozilla/5.0 (Windows NT 10.0; Win64; x64) AppleWebKit/537.36 (KHTML, like Gecko) Chrome/126.0.0.0 Safari/537.36" etag="TU5mDzNlR4ZFpli9wMFx" version="24.5.1" type="device">
  <diagram name="Page-1" id="JsgRPlxMGS1XCQl4mdA0">
    <mxGraphModel dx="1050" dy="596" grid="1" gridSize="10" guides="1" tooltips="1" connect="1" arrows="1" fold="1" page="1" pageScale="1" pageWidth="850" pageHeight="1100" math="0" shadow="0">
      <root>
        <mxCell id="0" />
        <mxCell id="1" parent="0" />
        <mxCell id="K6TFbLVVbo4ynpfESkBB-99" value="User" style="swimlane;fontStyle=1;align=center;verticalAlign=top;childLayout=stackLayout;horizontal=1;startSize=25.1;horizontalStack=0;resizeParent=1;resizeParentMax=0;resizeLast=0;collapsible=0;marginBottom=0;" vertex="1" parent="1">
          <mxGeometry x="41" y="347" width="124" height="258.1" as="geometry" />
        </mxCell>
        <mxCell id="K6TFbLVVbo4ynpfESkBB-100" value="int userID" style="text;strokeColor=none;fillColor=none;align=left;verticalAlign=top;spacingLeft=4;spacingRight=4;overflow=hidden;rotatable=0;points=[[0,0.5],[1,0.5]];portConstraint=eastwest;" vertex="1" parent="K6TFbLVVbo4ynpfESkBB-99">
          <mxGeometry y="25.1" width="124" height="25" as="geometry" />
        </mxCell>
        <mxCell id="K6TFbLVVbo4ynpfESkBB-101" value="String name" style="text;strokeColor=none;fillColor=none;align=left;verticalAlign=top;spacingLeft=4;spacingRight=4;overflow=hidden;rotatable=0;points=[[0,0.5],[1,0.5]];portConstraint=eastwest;" vertex="1" parent="K6TFbLVVbo4ynpfESkBB-99">
          <mxGeometry y="50.1" width="124" height="25" as="geometry" />
        </mxCell>
        <mxCell id="K6TFbLVVbo4ynpfESkBB-102" value="String email" style="text;strokeColor=none;fillColor=none;align=left;verticalAlign=top;spacingLeft=4;spacingRight=4;overflow=hidden;rotatable=0;points=[[0,0.5],[1,0.5]];portConstraint=eastwest;" vertex="1" parent="K6TFbLVVbo4ynpfESkBB-99">
          <mxGeometry y="75.1" width="124" height="25" as="geometry" />
        </mxCell>
        <mxCell id="K6TFbLVVbo4ynpfESkBB-103" value="String address" style="text;strokeColor=none;fillColor=none;align=left;verticalAlign=top;spacingLeft=4;spacingRight=4;overflow=hidden;rotatable=0;points=[[0,0.5],[1,0.5]];portConstraint=eastwest;" vertex="1" parent="K6TFbLVVbo4ynpfESkBB-99">
          <mxGeometry y="100.1" width="124" height="25" as="geometry" />
        </mxCell>
        <mxCell id="K6TFbLVVbo4ynpfESkBB-104" style="line;strokeWidth=1;fillColor=none;align=left;verticalAlign=middle;spacingTop=-1;spacingLeft=3;spacingRight=3;rotatable=0;labelPosition=right;points=[];portConstraint=eastwest;strokeColor=inherit;" vertex="1" parent="K6TFbLVVbo4ynpfESkBB-99">
          <mxGeometry y="125.1" width="124" height="8" as="geometry" />
        </mxCell>
        <mxCell id="K6TFbLVVbo4ynpfESkBB-105" value="register()" style="text;strokeColor=none;fillColor=none;align=left;verticalAlign=top;spacingLeft=4;spacingRight=4;overflow=hidden;rotatable=0;points=[[0,0.5],[1,0.5]];portConstraint=eastwest;" vertex="1" parent="K6TFbLVVbo4ynpfESkBB-99">
          <mxGeometry y="133.1" width="124" height="25" as="geometry" />
        </mxCell>
        <mxCell id="K6TFbLVVbo4ynpfESkBB-106" value="login()" style="text;strokeColor=none;fillColor=none;align=left;verticalAlign=top;spacingLeft=4;spacingRight=4;overflow=hidden;rotatable=0;points=[[0,0.5],[1,0.5]];portConstraint=eastwest;" vertex="1" parent="K6TFbLVVbo4ynpfESkBB-99">
          <mxGeometry y="158.1" width="124" height="25" as="geometry" />
        </mxCell>
        <mxCell id="K6TFbLVVbo4ynpfESkBB-107" value="logout()" style="text;strokeColor=none;fillColor=none;align=left;verticalAlign=top;spacingLeft=4;spacingRight=4;overflow=hidden;rotatable=0;points=[[0,0.5],[1,0.5]];portConstraint=eastwest;" vertex="1" parent="K6TFbLVVbo4ynpfESkBB-99">
          <mxGeometry y="183.1" width="124" height="25" as="geometry" />
        </mxCell>
        <mxCell id="K6TFbLVVbo4ynpfESkBB-108" value="updateProfile()" style="text;strokeColor=none;fillColor=none;align=left;verticalAlign=top;spacingLeft=4;spacingRight=4;overflow=hidden;rotatable=0;points=[[0,0.5],[1,0.5]];portConstraint=eastwest;" vertex="1" parent="K6TFbLVVbo4ynpfESkBB-99">
          <mxGeometry y="208.1" width="124" height="25" as="geometry" />
        </mxCell>
        <mxCell id="K6TFbLVVbo4ynpfESkBB-109" value="addReview()" style="text;strokeColor=none;fillColor=none;align=left;verticalAlign=top;spacingLeft=4;spacingRight=4;overflow=hidden;rotatable=0;points=[[0,0.5],[1,0.5]];portConstraint=eastwest;" vertex="1" parent="K6TFbLVVbo4ynpfESkBB-99">
          <mxGeometry y="233.1" width="124" height="25" as="geometry" />
        </mxCell>
        <mxCell id="K6TFbLVVbo4ynpfESkBB-110" value="Product" style="swimlane;fontStyle=1;align=center;verticalAlign=top;childLayout=stackLayout;horizontal=1;startSize=25.774999618530273;horizontalStack=0;resizeParent=1;resizeParentMax=0;resizeLast=0;collapsible=0;marginBottom=0;" vertex="1" parent="1">
          <mxGeometry x="769" y="1025" width="141" height="215.77499961853027" as="geometry" />
        </mxCell>
        <mxCell id="K6TFbLVVbo4ynpfESkBB-111" value="int productID" style="text;strokeColor=none;fillColor=none;align=left;verticalAlign=top;spacingLeft=4;spacingRight=4;overflow=hidden;rotatable=0;points=[[0,0.5],[1,0.5]];portConstraint=eastwest;" vertex="1" parent="K6TFbLVVbo4ynpfESkBB-110">
          <mxGeometry y="25.774999618530273" width="141" height="26" as="geometry" />
        </mxCell>
        <mxCell id="K6TFbLVVbo4ynpfESkBB-112" value="String name" style="text;strokeColor=none;fillColor=none;align=left;verticalAlign=top;spacingLeft=4;spacingRight=4;overflow=hidden;rotatable=0;points=[[0,0.5],[1,0.5]];portConstraint=eastwest;" vertex="1" parent="K6TFbLVVbo4ynpfESkBB-110">
          <mxGeometry y="51.77499961853027" width="141" height="26" as="geometry" />
        </mxCell>
        <mxCell id="K6TFbLVVbo4ynpfESkBB-113" value="String description" style="text;strokeColor=none;fillColor=none;align=left;verticalAlign=top;spacingLeft=4;spacingRight=4;overflow=hidden;rotatable=0;points=[[0,0.5],[1,0.5]];portConstraint=eastwest;" vertex="1" parent="K6TFbLVVbo4ynpfESkBB-110">
          <mxGeometry y="77.77499961853027" width="141" height="26" as="geometry" />
        </mxCell>
        <mxCell id="K6TFbLVVbo4ynpfESkBB-114" value="float price" style="text;strokeColor=none;fillColor=none;align=left;verticalAlign=top;spacingLeft=4;spacingRight=4;overflow=hidden;rotatable=0;points=[[0,0.5],[1,0.5]];portConstraint=eastwest;" vertex="1" parent="K6TFbLVVbo4ynpfESkBB-110">
          <mxGeometry y="103.77499961853027" width="141" height="26" as="geometry" />
        </mxCell>
        <mxCell id="K6TFbLVVbo4ynpfESkBB-115" value="int stock" style="text;strokeColor=none;fillColor=none;align=left;verticalAlign=top;spacingLeft=4;spacingRight=4;overflow=hidden;rotatable=0;points=[[0,0.5],[1,0.5]];portConstraint=eastwest;" vertex="1" parent="K6TFbLVVbo4ynpfESkBB-110">
          <mxGeometry y="129.77499961853027" width="141" height="26" as="geometry" />
        </mxCell>
        <mxCell id="K6TFbLVVbo4ynpfESkBB-116" style="line;strokeWidth=1;fillColor=none;align=left;verticalAlign=middle;spacingTop=-1;spacingLeft=3;spacingRight=3;rotatable=0;labelPosition=right;points=[];portConstraint=eastwest;strokeColor=inherit;" vertex="1" parent="K6TFbLVVbo4ynpfESkBB-110">
          <mxGeometry y="155.77499961853027" width="141" height="8" as="geometry" />
        </mxCell>
        <mxCell id="K6TFbLVVbo4ynpfESkBB-117" value="getDetails()" style="text;strokeColor=none;fillColor=none;align=left;verticalAlign=top;spacingLeft=4;spacingRight=4;overflow=hidden;rotatable=0;points=[[0,0.5],[1,0.5]];portConstraint=eastwest;" vertex="1" parent="K6TFbLVVbo4ynpfESkBB-110">
          <mxGeometry y="163.77499961853027" width="141" height="26" as="geometry" />
        </mxCell>
        <mxCell id="K6TFbLVVbo4ynpfESkBB-118" value="updateStock()" style="text;strokeColor=none;fillColor=none;align=left;verticalAlign=top;spacingLeft=4;spacingRight=4;overflow=hidden;rotatable=0;points=[[0,0.5],[1,0.5]];portConstraint=eastwest;" vertex="1" parent="K6TFbLVVbo4ynpfESkBB-110">
          <mxGeometry y="189.77499961853027" width="141" height="26" as="geometry" />
        </mxCell>
        <mxCell id="K6TFbLVVbo4ynpfESkBB-119" value="Order" style="swimlane;fontStyle=1;align=center;verticalAlign=top;childLayout=stackLayout;horizontal=1;startSize=24.8545448996804;horizontalStack=0;resizeParent=1;resizeParentMax=0;resizeLast=0;collapsible=0;marginBottom=0;" vertex="1" parent="1">
          <mxGeometry x="261" y="640.92" width="198" height="282.8545448996804" as="geometry" />
        </mxCell>
        <mxCell id="K6TFbLVVbo4ynpfESkBB-120" value="int orderID" style="text;strokeColor=none;fillColor=none;align=left;verticalAlign=top;spacingLeft=4;spacingRight=4;overflow=hidden;rotatable=0;points=[[0,0.5],[1,0.5]];portConstraint=eastwest;" vertex="1" parent="K6TFbLVVbo4ynpfESkBB-119">
          <mxGeometry y="24.8545448996804" width="198" height="25" as="geometry" />
        </mxCell>
        <mxCell id="K6TFbLVVbo4ynpfESkBB-121" value="int userID" style="text;strokeColor=none;fillColor=none;align=left;verticalAlign=top;spacingLeft=4;spacingRight=4;overflow=hidden;rotatable=0;points=[[0,0.5],[1,0.5]];portConstraint=eastwest;" vertex="1" parent="K6TFbLVVbo4ynpfESkBB-119">
          <mxGeometry y="49.8545448996804" width="198" height="25" as="geometry" />
        </mxCell>
        <mxCell id="K6TFbLVVbo4ynpfESkBB-122" value="int deliveryPersonID" style="text;strokeColor=none;fillColor=none;align=left;verticalAlign=top;spacingLeft=4;spacingRight=4;overflow=hidden;rotatable=0;points=[[0,0.5],[1,0.5]];portConstraint=eastwest;" vertex="1" parent="K6TFbLVVbo4ynpfESkBB-119">
          <mxGeometry y="74.8545448996804" width="198" height="25" as="geometry" />
        </mxCell>
        <mxCell id="K6TFbLVVbo4ynpfESkBB-123" value="List&lt;Product&gt; productList" style="text;strokeColor=none;fillColor=none;align=left;verticalAlign=top;spacingLeft=4;spacingRight=4;overflow=hidden;rotatable=0;points=[[0,0.5],[1,0.5]];portConstraint=eastwest;" vertex="1" parent="K6TFbLVVbo4ynpfESkBB-119">
          <mxGeometry y="99.8545448996804" width="198" height="25" as="geometry" />
        </mxCell>
        <mxCell id="K6TFbLVVbo4ynpfESkBB-124" value="float totalPrice" style="text;strokeColor=none;fillColor=none;align=left;verticalAlign=top;spacingLeft=4;spacingRight=4;overflow=hidden;rotatable=0;points=[[0,0.5],[1,0.5]];portConstraint=eastwest;" vertex="1" parent="K6TFbLVVbo4ynpfESkBB-119">
          <mxGeometry y="124.8545448996804" width="198" height="25" as="geometry" />
        </mxCell>
        <mxCell id="K6TFbLVVbo4ynpfESkBB-125" value="String status" style="text;strokeColor=none;fillColor=none;align=left;verticalAlign=top;spacingLeft=4;spacingRight=4;overflow=hidden;rotatable=0;points=[[0,0.5],[1,0.5]];portConstraint=eastwest;" vertex="1" parent="K6TFbLVVbo4ynpfESkBB-119">
          <mxGeometry y="149.8545448996804" width="198" height="25" as="geometry" />
        </mxCell>
        <mxCell id="K6TFbLVVbo4ynpfESkBB-126" style="line;strokeWidth=1;fillColor=none;align=left;verticalAlign=middle;spacingTop=-1;spacingLeft=3;spacingRight=3;rotatable=0;labelPosition=right;points=[];portConstraint=eastwest;strokeColor=inherit;" vertex="1" parent="K6TFbLVVbo4ynpfESkBB-119">
          <mxGeometry y="174.8545448996804" width="198" height="8" as="geometry" />
        </mxCell>
        <mxCell id="K6TFbLVVbo4ynpfESkBB-127" value="placeOrder()" style="text;strokeColor=none;fillColor=none;align=left;verticalAlign=top;spacingLeft=4;spacingRight=4;overflow=hidden;rotatable=0;points=[[0,0.5],[1,0.5]];portConstraint=eastwest;" vertex="1" parent="K6TFbLVVbo4ynpfESkBB-119">
          <mxGeometry y="182.8545448996804" width="198" height="25" as="geometry" />
        </mxCell>
        <mxCell id="K6TFbLVVbo4ynpfESkBB-128" value="cancelOrder()" style="text;strokeColor=none;fillColor=none;align=left;verticalAlign=top;spacingLeft=4;spacingRight=4;overflow=hidden;rotatable=0;points=[[0,0.5],[1,0.5]];portConstraint=eastwest;" vertex="1" parent="K6TFbLVVbo4ynpfESkBB-119">
          <mxGeometry y="207.8545448996804" width="198" height="25" as="geometry" />
        </mxCell>
        <mxCell id="K6TFbLVVbo4ynpfESkBB-129" value="trackOrder()" style="text;strokeColor=none;fillColor=none;align=left;verticalAlign=top;spacingLeft=4;spacingRight=4;overflow=hidden;rotatable=0;points=[[0,0.5],[1,0.5]];portConstraint=eastwest;" vertex="1" parent="K6TFbLVVbo4ynpfESkBB-119">
          <mxGeometry y="232.8545448996804" width="198" height="25" as="geometry" />
        </mxCell>
        <mxCell id="K6TFbLVVbo4ynpfESkBB-130" value="confirmDelivery()" style="text;strokeColor=none;fillColor=none;align=left;verticalAlign=top;spacingLeft=4;spacingRight=4;overflow=hidden;rotatable=0;points=[[0,0.5],[1,0.5]];portConstraint=eastwest;" vertex="1" parent="K6TFbLVVbo4ynpfESkBB-119">
          <mxGeometry y="257.8545448996804" width="198" height="25" as="geometry" />
        </mxCell>
        <mxCell id="K6TFbLVVbo4ynpfESkBB-131" value="ShoppingCart" style="swimlane;fontStyle=1;align=center;verticalAlign=top;childLayout=stackLayout;horizontal=1;startSize=25.774999618530273;horizontalStack=0;resizeParent=1;resizeParentMax=0;resizeLast=0;collapsible=0;marginBottom=0;" vertex="1" parent="1">
          <mxGeometry x="41" y="674.46" width="156" height="215.77499961853027" as="geometry" />
        </mxCell>
        <mxCell id="K6TFbLVVbo4ynpfESkBB-132" value="int cartID" style="text;strokeColor=none;fillColor=none;align=left;verticalAlign=top;spacingLeft=4;spacingRight=4;overflow=hidden;rotatable=0;points=[[0,0.5],[1,0.5]];portConstraint=eastwest;" vertex="1" parent="K6TFbLVVbo4ynpfESkBB-131">
          <mxGeometry y="25.774999618530273" width="156" height="26" as="geometry" />
        </mxCell>
        <mxCell id="K6TFbLVVbo4ynpfESkBB-133" value="int userID" style="text;strokeColor=none;fillColor=none;align=left;verticalAlign=top;spacingLeft=4;spacingRight=4;overflow=hidden;rotatable=0;points=[[0,0.5],[1,0.5]];portConstraint=eastwest;" vertex="1" parent="K6TFbLVVbo4ynpfESkBB-131">
          <mxGeometry y="51.77499961853027" width="156" height="26" as="geometry" />
        </mxCell>
        <mxCell id="K6TFbLVVbo4ynpfESkBB-134" value="List&lt;Product&gt; items" style="text;strokeColor=none;fillColor=none;align=left;verticalAlign=top;spacingLeft=4;spacingRight=4;overflow=hidden;rotatable=0;points=[[0,0.5],[1,0.5]];portConstraint=eastwest;" vertex="1" parent="K6TFbLVVbo4ynpfESkBB-131">
          <mxGeometry y="77.77499961853027" width="156" height="26" as="geometry" />
        </mxCell>
        <mxCell id="K6TFbLVVbo4ynpfESkBB-135" style="line;strokeWidth=1;fillColor=none;align=left;verticalAlign=middle;spacingTop=-1;spacingLeft=3;spacingRight=3;rotatable=0;labelPosition=right;points=[];portConstraint=eastwest;strokeColor=inherit;" vertex="1" parent="K6TFbLVVbo4ynpfESkBB-131">
          <mxGeometry y="103.77499961853027" width="156" height="8" as="geometry" />
        </mxCell>
        <mxCell id="K6TFbLVVbo4ynpfESkBB-136" value="addItem()" style="text;strokeColor=none;fillColor=none;align=left;verticalAlign=top;spacingLeft=4;spacingRight=4;overflow=hidden;rotatable=0;points=[[0,0.5],[1,0.5]];portConstraint=eastwest;" vertex="1" parent="K6TFbLVVbo4ynpfESkBB-131">
          <mxGeometry y="111.77499961853027" width="156" height="26" as="geometry" />
        </mxCell>
        <mxCell id="K6TFbLVVbo4ynpfESkBB-137" value="removeItem()" style="text;strokeColor=none;fillColor=none;align=left;verticalAlign=top;spacingLeft=4;spacingRight=4;overflow=hidden;rotatable=0;points=[[0,0.5],[1,0.5]];portConstraint=eastwest;" vertex="1" parent="K6TFbLVVbo4ynpfESkBB-131">
          <mxGeometry y="137.77499961853027" width="156" height="26" as="geometry" />
        </mxCell>
        <mxCell id="K6TFbLVVbo4ynpfESkBB-138" value="viewCart()" style="text;strokeColor=none;fillColor=none;align=left;verticalAlign=top;spacingLeft=4;spacingRight=4;overflow=hidden;rotatable=0;points=[[0,0.5],[1,0.5]];portConstraint=eastwest;" vertex="1" parent="K6TFbLVVbo4ynpfESkBB-131">
          <mxGeometry y="163.77499961853027" width="156" height="26" as="geometry" />
        </mxCell>
        <mxCell id="K6TFbLVVbo4ynpfESkBB-139" value="checkout()" style="text;strokeColor=none;fillColor=none;align=left;verticalAlign=top;spacingLeft=4;spacingRight=4;overflow=hidden;rotatable=0;points=[[0,0.5],[1,0.5]];portConstraint=eastwest;" vertex="1" parent="K6TFbLVVbo4ynpfESkBB-131">
          <mxGeometry y="189.77499961853027" width="156" height="26" as="geometry" />
        </mxCell>
        <mxCell id="K6TFbLVVbo4ynpfESkBB-140" value="Payment" style="swimlane;fontStyle=1;align=center;verticalAlign=top;childLayout=stackLayout;horizontal=1;startSize=26.25714329310826;horizontalStack=0;resizeParent=1;resizeParentMax=0;resizeLast=0;collapsible=0;marginBottom=0;" vertex="1" parent="1">
          <mxGeometry x="119" y="960" width="142" height="190.25714329310824" as="geometry" />
        </mxCell>
        <mxCell id="K6TFbLVVbo4ynpfESkBB-141" value="int paymentID" style="text;strokeColor=none;fillColor=none;align=left;verticalAlign=top;spacingLeft=4;spacingRight=4;overflow=hidden;rotatable=0;points=[[0,0.5],[1,0.5]];portConstraint=eastwest;" vertex="1" parent="K6TFbLVVbo4ynpfESkBB-140">
          <mxGeometry y="26.25714329310826" width="142" height="26" as="geometry" />
        </mxCell>
        <mxCell id="K6TFbLVVbo4ynpfESkBB-142" value="int orderID" style="text;strokeColor=none;fillColor=none;align=left;verticalAlign=top;spacingLeft=4;spacingRight=4;overflow=hidden;rotatable=0;points=[[0,0.5],[1,0.5]];portConstraint=eastwest;" vertex="1" parent="K6TFbLVVbo4ynpfESkBB-140">
          <mxGeometry y="52.25714329310826" width="142" height="26" as="geometry" />
        </mxCell>
        <mxCell id="K6TFbLVVbo4ynpfESkBB-143" value="float amount" style="text;strokeColor=none;fillColor=none;align=left;verticalAlign=top;spacingLeft=4;spacingRight=4;overflow=hidden;rotatable=0;points=[[0,0.5],[1,0.5]];portConstraint=eastwest;" vertex="1" parent="K6TFbLVVbo4ynpfESkBB-140">
          <mxGeometry y="78.25714329310826" width="142" height="26" as="geometry" />
        </mxCell>
        <mxCell id="K6TFbLVVbo4ynpfESkBB-144" value="String method" style="text;strokeColor=none;fillColor=none;align=left;verticalAlign=top;spacingLeft=4;spacingRight=4;overflow=hidden;rotatable=0;points=[[0,0.5],[1,0.5]];portConstraint=eastwest;" vertex="1" parent="K6TFbLVVbo4ynpfESkBB-140">
          <mxGeometry y="104.25714329310826" width="142" height="26" as="geometry" />
        </mxCell>
        <mxCell id="K6TFbLVVbo4ynpfESkBB-145" style="line;strokeWidth=1;fillColor=none;align=left;verticalAlign=middle;spacingTop=-1;spacingLeft=3;spacingRight=3;rotatable=0;labelPosition=right;points=[];portConstraint=eastwest;strokeColor=inherit;" vertex="1" parent="K6TFbLVVbo4ynpfESkBB-140">
          <mxGeometry y="130.25714329310824" width="142" height="8" as="geometry" />
        </mxCell>
        <mxCell id="K6TFbLVVbo4ynpfESkBB-146" value="processPayment()" style="text;strokeColor=none;fillColor=none;align=left;verticalAlign=top;spacingLeft=4;spacingRight=4;overflow=hidden;rotatable=0;points=[[0,0.5],[1,0.5]];portConstraint=eastwest;" vertex="1" parent="K6TFbLVVbo4ynpfESkBB-140">
          <mxGeometry y="138.25714329310824" width="142" height="26" as="geometry" />
        </mxCell>
        <mxCell id="K6TFbLVVbo4ynpfESkBB-147" value="refundPayment()" style="text;strokeColor=none;fillColor=none;align=left;verticalAlign=top;spacingLeft=4;spacingRight=4;overflow=hidden;rotatable=0;points=[[0,0.5],[1,0.5]];portConstraint=eastwest;" vertex="1" parent="K6TFbLVVbo4ynpfESkBB-140">
          <mxGeometry y="164.25714329310824" width="142" height="26" as="geometry" />
        </mxCell>
        <mxCell id="K6TFbLVVbo4ynpfESkBB-148" value="Review" style="swimlane;fontStyle=1;align=center;verticalAlign=top;childLayout=stackLayout;horizontal=1;startSize=25.400000678168404;horizontalStack=0;resizeParent=1;resizeParentMax=0;resizeLast=0;collapsible=0;marginBottom=0;" vertex="1" parent="1">
          <mxGeometry x="680" y="656.83" width="128" height="233.4000006781684" as="geometry" />
        </mxCell>
        <mxCell id="K6TFbLVVbo4ynpfESkBB-149" value="int reviewID" style="text;strokeColor=none;fillColor=none;align=left;verticalAlign=top;spacingLeft=4;spacingRight=4;overflow=hidden;rotatable=0;points=[[0,0.5],[1,0.5]];portConstraint=eastwest;" vertex="1" parent="K6TFbLVVbo4ynpfESkBB-148">
          <mxGeometry y="25.400000678168404" width="128" height="25" as="geometry" />
        </mxCell>
        <mxCell id="K6TFbLVVbo4ynpfESkBB-150" value="int productID" style="text;strokeColor=none;fillColor=none;align=left;verticalAlign=top;spacingLeft=4;spacingRight=4;overflow=hidden;rotatable=0;points=[[0,0.5],[1,0.5]];portConstraint=eastwest;" vertex="1" parent="K6TFbLVVbo4ynpfESkBB-148">
          <mxGeometry y="50.400000678168404" width="128" height="25" as="geometry" />
        </mxCell>
        <mxCell id="K6TFbLVVbo4ynpfESkBB-151" value="int userID" style="text;strokeColor=none;fillColor=none;align=left;verticalAlign=top;spacingLeft=4;spacingRight=4;overflow=hidden;rotatable=0;points=[[0,0.5],[1,0.5]];portConstraint=eastwest;" vertex="1" parent="K6TFbLVVbo4ynpfESkBB-148">
          <mxGeometry y="75.4000006781684" width="128" height="25" as="geometry" />
        </mxCell>
        <mxCell id="K6TFbLVVbo4ynpfESkBB-152" value="int rating" style="text;strokeColor=none;fillColor=none;align=left;verticalAlign=top;spacingLeft=4;spacingRight=4;overflow=hidden;rotatable=0;points=[[0,0.5],[1,0.5]];portConstraint=eastwest;" vertex="1" parent="K6TFbLVVbo4ynpfESkBB-148">
          <mxGeometry y="100.4000006781684" width="128" height="25" as="geometry" />
        </mxCell>
        <mxCell id="K6TFbLVVbo4ynpfESkBB-153" value="String comment" style="text;strokeColor=none;fillColor=none;align=left;verticalAlign=top;spacingLeft=4;spacingRight=4;overflow=hidden;rotatable=0;points=[[0,0.5],[1,0.5]];portConstraint=eastwest;" vertex="1" parent="K6TFbLVVbo4ynpfESkBB-148">
          <mxGeometry y="125.4000006781684" width="128" height="25" as="geometry" />
        </mxCell>
        <mxCell id="K6TFbLVVbo4ynpfESkBB-154" style="line;strokeWidth=1;fillColor=none;align=left;verticalAlign=middle;spacingTop=-1;spacingLeft=3;spacingRight=3;rotatable=0;labelPosition=right;points=[];portConstraint=eastwest;strokeColor=inherit;" vertex="1" parent="K6TFbLVVbo4ynpfESkBB-148">
          <mxGeometry y="150.4000006781684" width="128" height="8" as="geometry" />
        </mxCell>
        <mxCell id="K6TFbLVVbo4ynpfESkBB-155" value="addReview()" style="text;strokeColor=none;fillColor=none;align=left;verticalAlign=top;spacingLeft=4;spacingRight=4;overflow=hidden;rotatable=0;points=[[0,0.5],[1,0.5]];portConstraint=eastwest;" vertex="1" parent="K6TFbLVVbo4ynpfESkBB-148">
          <mxGeometry y="158.4000006781684" width="128" height="25" as="geometry" />
        </mxCell>
        <mxCell id="K6TFbLVVbo4ynpfESkBB-156" value="editReview()" style="text;strokeColor=none;fillColor=none;align=left;verticalAlign=top;spacingLeft=4;spacingRight=4;overflow=hidden;rotatable=0;points=[[0,0.5],[1,0.5]];portConstraint=eastwest;" vertex="1" parent="K6TFbLVVbo4ynpfESkBB-148">
          <mxGeometry y="183.4000006781684" width="128" height="25" as="geometry" />
        </mxCell>
        <mxCell id="K6TFbLVVbo4ynpfESkBB-157" value="deleteReview()" style="text;strokeColor=none;fillColor=none;align=left;verticalAlign=top;spacingLeft=4;spacingRight=4;overflow=hidden;rotatable=0;points=[[0,0.5],[1,0.5]];portConstraint=eastwest;" vertex="1" parent="K6TFbLVVbo4ynpfESkBB-148">
          <mxGeometry y="208.4000006781684" width="128" height="25" as="geometry" />
        </mxCell>
        <mxCell id="K6TFbLVVbo4ynpfESkBB-158" value="DeliveryPerson" style="swimlane;fontStyle=1;align=center;verticalAlign=top;childLayout=stackLayout;horizontal=1;startSize=26.25714329310826;horizontalStack=0;resizeParent=1;resizeParentMax=0;resizeLast=0;collapsible=0;marginBottom=0;" vertex="1" parent="1">
          <mxGeometry x="341" y="1036" width="173" height="190.25714329310824" as="geometry" />
        </mxCell>
        <mxCell id="K6TFbLVVbo4ynpfESkBB-159" value="int deliveryPersonID" style="text;strokeColor=none;fillColor=none;align=left;verticalAlign=top;spacingLeft=4;spacingRight=4;overflow=hidden;rotatable=0;points=[[0,0.5],[1,0.5]];portConstraint=eastwest;" vertex="1" parent="K6TFbLVVbo4ynpfESkBB-158">
          <mxGeometry y="26.25714329310826" width="173" height="26" as="geometry" />
        </mxCell>
        <mxCell id="K6TFbLVVbo4ynpfESkBB-160" value="String name" style="text;strokeColor=none;fillColor=none;align=left;verticalAlign=top;spacingLeft=4;spacingRight=4;overflow=hidden;rotatable=0;points=[[0,0.5],[1,0.5]];portConstraint=eastwest;" vertex="1" parent="K6TFbLVVbo4ynpfESkBB-158">
          <mxGeometry y="52.25714329310826" width="173" height="26" as="geometry" />
        </mxCell>
        <mxCell id="K6TFbLVVbo4ynpfESkBB-161" value="String contactNumber" style="text;strokeColor=none;fillColor=none;align=left;verticalAlign=top;spacingLeft=4;spacingRight=4;overflow=hidden;rotatable=0;points=[[0,0.5],[1,0.5]];portConstraint=eastwest;" vertex="1" parent="K6TFbLVVbo4ynpfESkBB-158">
          <mxGeometry y="78.25714329310826" width="173" height="26" as="geometry" />
        </mxCell>
        <mxCell id="K6TFbLVVbo4ynpfESkBB-162" style="line;strokeWidth=1;fillColor=none;align=left;verticalAlign=middle;spacingTop=-1;spacingLeft=3;spacingRight=3;rotatable=0;labelPosition=right;points=[];portConstraint=eastwest;strokeColor=inherit;" vertex="1" parent="K6TFbLVVbo4ynpfESkBB-158">
          <mxGeometry y="104.25714329310826" width="173" height="8" as="geometry" />
        </mxCell>
        <mxCell id="K6TFbLVVbo4ynpfESkBB-163" value="assignOrder()" style="text;strokeColor=none;fillColor=none;align=left;verticalAlign=top;spacingLeft=4;spacingRight=4;overflow=hidden;rotatable=0;points=[[0,0.5],[1,0.5]];portConstraint=eastwest;" vertex="1" parent="K6TFbLVVbo4ynpfESkBB-158">
          <mxGeometry y="112.25714329310826" width="173" height="26" as="geometry" />
        </mxCell>
        <mxCell id="K6TFbLVVbo4ynpfESkBB-164" value="updateStatus()" style="text;strokeColor=none;fillColor=none;align=left;verticalAlign=top;spacingLeft=4;spacingRight=4;overflow=hidden;rotatable=0;points=[[0,0.5],[1,0.5]];portConstraint=eastwest;" vertex="1" parent="K6TFbLVVbo4ynpfESkBB-158">
          <mxGeometry y="138.25714329310824" width="173" height="26" as="geometry" />
        </mxCell>
        <mxCell id="K6TFbLVVbo4ynpfESkBB-165" value="confirmDelivery()" style="text;strokeColor=none;fillColor=none;align=left;verticalAlign=top;spacingLeft=4;spacingRight=4;overflow=hidden;rotatable=0;points=[[0,0.5],[1,0.5]];portConstraint=eastwest;" vertex="1" parent="K6TFbLVVbo4ynpfESkBB-158">
          <mxGeometry y="164.25714329310824" width="173" height="26" as="geometry" />
        </mxCell>
        <mxCell id="K6TFbLVVbo4ynpfESkBB-166" value="OTPAuthentication" style="swimlane;fontStyle=1;align=center;verticalAlign=top;childLayout=stackLayout;horizontal=1;startSize=26.899998982747395;horizontalStack=0;resizeParent=1;resizeParentMax=0;resizeLast=0;collapsible=0;marginBottom=0;" vertex="1" parent="1">
          <mxGeometry x="563" y="1047" width="156" height="169.89999898274738" as="geometry" />
        </mxCell>
        <mxCell id="K6TFbLVVbo4ynpfESkBB-167" value="int otpID" style="text;strokeColor=none;fillColor=none;align=left;verticalAlign=top;spacingLeft=4;spacingRight=4;overflow=hidden;rotatable=0;points=[[0,0.5],[1,0.5]];portConstraint=eastwest;" vertex="1" parent="K6TFbLVVbo4ynpfESkBB-166">
          <mxGeometry y="26.899998982747395" width="156" height="27" as="geometry" />
        </mxCell>
        <mxCell id="K6TFbLVVbo4ynpfESkBB-168" value="int orderID" style="text;strokeColor=none;fillColor=none;align=left;verticalAlign=top;spacingLeft=4;spacingRight=4;overflow=hidden;rotatable=0;points=[[0,0.5],[1,0.5]];portConstraint=eastwest;" vertex="1" parent="K6TFbLVVbo4ynpfESkBB-166">
          <mxGeometry y="53.89999898274739" width="156" height="27" as="geometry" />
        </mxCell>
        <mxCell id="K6TFbLVVbo4ynpfESkBB-169" value="String otpCode" style="text;strokeColor=none;fillColor=none;align=left;verticalAlign=top;spacingLeft=4;spacingRight=4;overflow=hidden;rotatable=0;points=[[0,0.5],[1,0.5]];portConstraint=eastwest;" vertex="1" parent="K6TFbLVVbo4ynpfESkBB-166">
          <mxGeometry y="80.89999898274739" width="156" height="27" as="geometry" />
        </mxCell>
        <mxCell id="K6TFbLVVbo4ynpfESkBB-170" style="line;strokeWidth=1;fillColor=none;align=left;verticalAlign=middle;spacingTop=-1;spacingLeft=3;spacingRight=3;rotatable=0;labelPosition=right;points=[];portConstraint=eastwest;strokeColor=inherit;" vertex="1" parent="K6TFbLVVbo4ynpfESkBB-166">
          <mxGeometry y="107.89999898274739" width="156" height="8" as="geometry" />
        </mxCell>
        <mxCell id="K6TFbLVVbo4ynpfESkBB-171" value="generateOTP()" style="text;strokeColor=none;fillColor=none;align=left;verticalAlign=top;spacingLeft=4;spacingRight=4;overflow=hidden;rotatable=0;points=[[0,0.5],[1,0.5]];portConstraint=eastwest;" vertex="1" parent="K6TFbLVVbo4ynpfESkBB-166">
          <mxGeometry y="115.89999898274739" width="156" height="27" as="geometry" />
        </mxCell>
        <mxCell id="K6TFbLVVbo4ynpfESkBB-172" value="verifyOTP()" style="text;strokeColor=none;fillColor=none;align=left;verticalAlign=top;spacingLeft=4;spacingRight=4;overflow=hidden;rotatable=0;points=[[0,0.5],[1,0.5]];portConstraint=eastwest;" vertex="1" parent="K6TFbLVVbo4ynpfESkBB-166">
          <mxGeometry y="142.89999898274738" width="156" height="27" as="geometry" />
        </mxCell>
        <mxCell id="K6TFbLVVbo4ynpfESkBB-173" value="Admin" style="swimlane;fontStyle=1;align=center;verticalAlign=top;childLayout=stackLayout;horizontal=1;startSize=25.1;horizontalStack=0;resizeParent=1;resizeParentMax=0;resizeLast=0;collapsible=0;marginBottom=0;" vertex="1" parent="1">
          <mxGeometry x="418" y="20" width="173" height="258.1" as="geometry" />
        </mxCell>
        <mxCell id="K6TFbLVVbo4ynpfESkBB-174" value="int adminID" style="text;strokeColor=none;fillColor=none;align=left;verticalAlign=top;spacingLeft=4;spacingRight=4;overflow=hidden;rotatable=0;points=[[0,0.5],[1,0.5]];portConstraint=eastwest;" vertex="1" parent="K6TFbLVVbo4ynpfESkBB-173">
          <mxGeometry y="25.1" width="173" height="25" as="geometry" />
        </mxCell>
        <mxCell id="K6TFbLVVbo4ynpfESkBB-175" value="String name" style="text;strokeColor=none;fillColor=none;align=left;verticalAlign=top;spacingLeft=4;spacingRight=4;overflow=hidden;rotatable=0;points=[[0,0.5],[1,0.5]];portConstraint=eastwest;" vertex="1" parent="K6TFbLVVbo4ynpfESkBB-173">
          <mxGeometry y="50.1" width="173" height="25" as="geometry" />
        </mxCell>
        <mxCell id="K6TFbLVVbo4ynpfESkBB-176" value="String email" style="text;strokeColor=none;fillColor=none;align=left;verticalAlign=top;spacingLeft=4;spacingRight=4;overflow=hidden;rotatable=0;points=[[0,0.5],[1,0.5]];portConstraint=eastwest;" vertex="1" parent="K6TFbLVVbo4ynpfESkBB-173">
          <mxGeometry y="75.1" width="173" height="25" as="geometry" />
        </mxCell>
        <mxCell id="K6TFbLVVbo4ynpfESkBB-177" value="String contactNumber" style="text;strokeColor=none;fillColor=none;align=left;verticalAlign=top;spacingLeft=4;spacingRight=4;overflow=hidden;rotatable=0;points=[[0,0.5],[1,0.5]];portConstraint=eastwest;" vertex="1" parent="K6TFbLVVbo4ynpfESkBB-173">
          <mxGeometry y="100.1" width="173" height="25" as="geometry" />
        </mxCell>
        <mxCell id="K6TFbLVVbo4ynpfESkBB-178" style="line;strokeWidth=1;fillColor=none;align=left;verticalAlign=middle;spacingTop=-1;spacingLeft=3;spacingRight=3;rotatable=0;labelPosition=right;points=[];portConstraint=eastwest;strokeColor=inherit;" vertex="1" parent="K6TFbLVVbo4ynpfESkBB-173">
          <mxGeometry y="125.1" width="173" height="8" as="geometry" />
        </mxCell>
        <mxCell id="K6TFbLVVbo4ynpfESkBB-179" value="manageUsers()" style="text;strokeColor=none;fillColor=none;align=left;verticalAlign=top;spacingLeft=4;spacingRight=4;overflow=hidden;rotatable=0;points=[[0,0.5],[1,0.5]];portConstraint=eastwest;" vertex="1" parent="K6TFbLVVbo4ynpfESkBB-173">
          <mxGeometry y="133.1" width="173" height="25" as="geometry" />
        </mxCell>
        <mxCell id="K6TFbLVVbo4ynpfESkBB-180" value="manageProducts()" style="text;strokeColor=none;fillColor=none;align=left;verticalAlign=top;spacingLeft=4;spacingRight=4;overflow=hidden;rotatable=0;points=[[0,0.5],[1,0.5]];portConstraint=eastwest;" vertex="1" parent="K6TFbLVVbo4ynpfESkBB-173">
          <mxGeometry y="158.1" width="173" height="25" as="geometry" />
        </mxCell>
        <mxCell id="K6TFbLVVbo4ynpfESkBB-181" value="manageOrders()" style="text;strokeColor=none;fillColor=none;align=left;verticalAlign=top;spacingLeft=4;spacingRight=4;overflow=hidden;rotatable=0;points=[[0,0.5],[1,0.5]];portConstraint=eastwest;" vertex="1" parent="K6TFbLVVbo4ynpfESkBB-173">
          <mxGeometry y="183.1" width="173" height="25" as="geometry" />
        </mxCell>
        <mxCell id="K6TFbLVVbo4ynpfESkBB-182" value="manageReviews()" style="text;strokeColor=none;fillColor=none;align=left;verticalAlign=top;spacingLeft=4;spacingRight=4;overflow=hidden;rotatable=0;points=[[0,0.5],[1,0.5]];portConstraint=eastwest;" vertex="1" parent="K6TFbLVVbo4ynpfESkBB-173">
          <mxGeometry y="208.1" width="173" height="25" as="geometry" />
        </mxCell>
        <mxCell id="K6TFbLVVbo4ynpfESkBB-183" value="manageDeliveries()" style="text;strokeColor=none;fillColor=none;align=left;verticalAlign=top;spacingLeft=4;spacingRight=4;overflow=hidden;rotatable=0;points=[[0,0.5],[1,0.5]];portConstraint=eastwest;" vertex="1" parent="K6TFbLVVbo4ynpfESkBB-173">
          <mxGeometry y="233.1" width="173" height="25" as="geometry" />
        </mxCell>
        <mxCell id="K6TFbLVVbo4ynpfESkBB-184" value="places" style="curved=1;startArrow=none;endArrow=none;exitX=1.0013104792564147;exitY=0.7311885008452809;entryX=0.14870185523342813;entryY=-0.0007117464873290147;rounded=0;" edge="1" parent="1" source="K6TFbLVVbo4ynpfESkBB-99" target="K6TFbLVVbo4ynpfESkBB-119">
          <mxGeometry relative="1" as="geometry">
            <Array as="points">
              <mxPoint x="274" y="641" />
            </Array>
          </mxGeometry>
        </mxCell>
        <mxCell id="K6TFbLVVbo4ynpfESkBB-185" value="1" style="edgeLabel;resizable=0;labelBackgroundColor=none;fontSize=12;align=left;verticalAlign=top;" vertex="1" parent="K6TFbLVVbo4ynpfESkBB-184">
          <mxGeometry x="-1" relative="1" as="geometry" />
        </mxCell>
        <mxCell id="K6TFbLVVbo4ynpfESkBB-186" value="0..*" style="edgeLabel;resizable=0;labelBackgroundColor=none;fontSize=12;align=right;verticalAlign=bottom;" vertex="1" parent="K6TFbLVVbo4ynpfESkBB-184">
          <mxGeometry x="1" relative="1" as="geometry" />
        </mxCell>
        <mxCell id="K6TFbLVVbo4ynpfESkBB-187" value="has" style="curved=0;startArrow=none;endArrow=none;exitX=0.6900431089646569;exitY=1.0015444000715454;rounded=0;" edge="1" parent="1" source="K6TFbLVVbo4ynpfESkBB-99">
          <mxGeometry relative="1" as="geometry">
            <Array as="points">
              <mxPoint x="133" y="641" />
            </Array>
            <mxPoint x="140" y="670" as="targetPoint" />
          </mxGeometry>
        </mxCell>
        <mxCell id="K6TFbLVVbo4ynpfESkBB-188" value="1" style="edgeLabel;resizable=0;labelBackgroundColor=none;fontSize=12;align=right;verticalAlign=top;" vertex="1" parent="K6TFbLVVbo4ynpfESkBB-187">
          <mxGeometry x="-1" relative="1" as="geometry" />
        </mxCell>
        <mxCell id="K6TFbLVVbo4ynpfESkBB-189" value="1" style="edgeLabel;resizable=0;labelBackgroundColor=none;fontSize=12;align=left;verticalAlign=bottom;" vertex="1" parent="K6TFbLVVbo4ynpfESkBB-187">
          <mxGeometry x="1" relative="1" as="geometry" />
        </mxCell>
        <mxCell id="K6TFbLVVbo4ynpfESkBB-190" value="writes" style="curved=0;startArrow=none;endArrow=none;exitX=1;exitY=0.5;entryX=0;entryY=0;rounded=1;exitDx=0;exitDy=0;entryDx=0;entryDy=0;" edge="1" parent="1" source="K6TFbLVVbo4ynpfESkBB-105" target="K6TFbLVVbo4ynpfESkBB-148">
          <mxGeometry relative="1" as="geometry">
            <Array as="points">
              <mxPoint x="620" y="520" />
            </Array>
          </mxGeometry>
        </mxCell>
        <mxCell id="K6TFbLVVbo4ynpfESkBB-191" value="1" style="edgeLabel;resizable=0;labelBackgroundColor=none;fontSize=12;align=left;verticalAlign=top;" vertex="1" parent="K6TFbLVVbo4ynpfESkBB-190">
          <mxGeometry x="-1" relative="1" as="geometry" />
        </mxCell>
        <mxCell id="K6TFbLVVbo4ynpfESkBB-192" value="0..*" style="edgeLabel;resizable=0;labelBackgroundColor=none;fontSize=12;align=right;verticalAlign=bottom;" vertex="1" parent="K6TFbLVVbo4ynpfESkBB-190">
          <mxGeometry x="1" relative="1" as="geometry" />
        </mxCell>
        <mxCell id="K6TFbLVVbo4ynpfESkBB-193" value="has" style="curved=1;startArrow=none;endArrow=none;exitX=-0.0005366103817718198;exitY=0.7791589329757476;entryX=0.500415412473007;entryY=-0.0010417203108469646;rounded=0;" edge="1" parent="1" source="K6TFbLVVbo4ynpfESkBB-119" target="K6TFbLVVbo4ynpfESkBB-140">
          <mxGeometry relative="1" as="geometry">
            <Array as="points" />
          </mxGeometry>
        </mxCell>
        <mxCell id="K6TFbLVVbo4ynpfESkBB-194" value="1" style="edgeLabel;resizable=0;labelBackgroundColor=none;fontSize=12;align=right;verticalAlign=top;" vertex="1" parent="K6TFbLVVbo4ynpfESkBB-193">
          <mxGeometry x="-1" relative="1" as="geometry" />
        </mxCell>
        <mxCell id="K6TFbLVVbo4ynpfESkBB-195" value="1" style="edgeLabel;resizable=0;labelBackgroundColor=none;fontSize=12;align=left;verticalAlign=bottom;" vertex="1" parent="K6TFbLVVbo4ynpfESkBB-193">
          <mxGeometry x="1" relative="1" as="geometry" />
        </mxCell>
        <mxCell id="K6TFbLVVbo4ynpfESkBB-196" value="assigned to" style="curved=1;startArrow=none;endArrow=none;exitX=0.4998816576871005;exitY=1.0007117193364587;entryX=0.2342029976409382;entryY=-0.0010417203108469646;rounded=0;" edge="1" parent="1" source="K6TFbLVVbo4ynpfESkBB-119" target="K6TFbLVVbo4ynpfESkBB-158">
          <mxGeometry relative="1" as="geometry">
            <Array as="points">
              <mxPoint x="360" y="990" />
            </Array>
          </mxGeometry>
        </mxCell>
        <mxCell id="K6TFbLVVbo4ynpfESkBB-197" value="1" style="edgeLabel;resizable=0;labelBackgroundColor=none;fontSize=12;align=right;verticalAlign=top;" vertex="1" parent="K6TFbLVVbo4ynpfESkBB-196">
          <mxGeometry x="-1" relative="1" as="geometry" />
        </mxCell>
        <mxCell id="K6TFbLVVbo4ynpfESkBB-198" value="1" style="edgeLabel;resizable=0;labelBackgroundColor=none;fontSize=12;align=left;verticalAlign=bottom;" vertex="1" parent="K6TFbLVVbo4ynpfESkBB-196">
          <mxGeometry x="1" relative="1" as="geometry" />
        </mxCell>
        <mxCell id="K6TFbLVVbo4ynpfESkBB-199" value="verified by" style="curved=1;startArrow=none;endArrow=none;exitX=1.0002999257559728;exitY=0.719240970778852;entryX=0.5017328140063163;entryY=-3.385825975406805e-8;rounded=0;" edge="1" parent="1" source="K6TFbLVVbo4ynpfESkBB-119" target="K6TFbLVVbo4ynpfESkBB-166">
          <mxGeometry relative="1" as="geometry">
            <Array as="points">
              <mxPoint x="641" y="990" />
            </Array>
          </mxGeometry>
        </mxCell>
        <mxCell id="K6TFbLVVbo4ynpfESkBB-200" value="1" style="edgeLabel;resizable=0;labelBackgroundColor=none;fontSize=12;align=left;verticalAlign=top;" vertex="1" parent="K6TFbLVVbo4ynpfESkBB-199">
          <mxGeometry x="-1" relative="1" as="geometry" />
        </mxCell>
        <mxCell id="K6TFbLVVbo4ynpfESkBB-201" value="1" style="edgeLabel;resizable=0;labelBackgroundColor=none;fontSize=12;align=right;verticalAlign=bottom;" vertex="1" parent="K6TFbLVVbo4ynpfESkBB-199">
          <mxGeometry x="1" relative="1" as="geometry" />
        </mxCell>
        <mxCell id="K6TFbLVVbo4ynpfESkBB-202" value="contains" style="curved=1;startArrow=none;endArrow=none;exitX=1.0002999257559728;exitY=0.6450321193938034;entryX=0.20868824886328433;entryY=-0.0018691927473121713;rounded=0;" edge="1" parent="1" source="K6TFbLVVbo4ynpfESkBB-119" target="K6TFbLVVbo4ynpfESkBB-110">
          <mxGeometry relative="1" as="geometry">
            <Array as="points">
              <mxPoint x="785" y="990" />
            </Array>
          </mxGeometry>
        </mxCell>
        <mxCell id="K6TFbLVVbo4ynpfESkBB-203" value="0..*" style="edgeLabel;resizable=0;labelBackgroundColor=none;fontSize=12;align=left;verticalAlign=top;" vertex="1" parent="K6TFbLVVbo4ynpfESkBB-202">
          <mxGeometry x="-1" relative="1" as="geometry" />
        </mxCell>
        <mxCell id="K6TFbLVVbo4ynpfESkBB-204" value="0..*" style="edgeLabel;resizable=0;labelBackgroundColor=none;fontSize=12;align=right;verticalAlign=bottom;" vertex="1" parent="K6TFbLVVbo4ynpfESkBB-202">
          <mxGeometry x="1" relative="1" as="geometry" />
        </mxCell>
        <mxCell id="K6TFbLVVbo4ynpfESkBB-205" value="receives" style="curved=0;startArrow=none;endArrow=none;exitX=0.5;exitY=0;entryX=0.659;entryY=1.152;rounded=0;exitDx=0;exitDy=0;entryDx=0;entryDy=0;entryPerimeter=0;" edge="1" parent="1" source="K6TFbLVVbo4ynpfESkBB-110" target="K6TFbLVVbo4ynpfESkBB-157">
          <mxGeometry relative="1" as="geometry">
            <Array as="points">
              <mxPoint x="820" y="990" />
            </Array>
          </mxGeometry>
        </mxCell>
        <mxCell id="K6TFbLVVbo4ynpfESkBB-206" value="1" style="edgeLabel;resizable=0;labelBackgroundColor=none;fontSize=12;align=right;verticalAlign=top;" vertex="1" parent="K6TFbLVVbo4ynpfESkBB-205">
          <mxGeometry x="-1" relative="1" as="geometry" />
        </mxCell>
        <mxCell id="K6TFbLVVbo4ynpfESkBB-207" value="0..*" style="edgeLabel;resizable=0;labelBackgroundColor=none;fontSize=12;align=left;verticalAlign=bottom;" vertex="1" parent="K6TFbLVVbo4ynpfESkBB-205">
          <mxGeometry x="1" relative="1" as="geometry" />
        </mxCell>
        <mxCell id="K6TFbLVVbo4ynpfESkBB-208" value="manages" style="curved=1;startArrow=none;endArrow=none;exitX=0.0003929358686325867;exitY=0.6361007617707295;entryX=0.5025201689812445;entryY=0.0015444000715454573;rounded=0;" edge="1" parent="1" source="K6TFbLVVbo4ynpfESkBB-173" target="K6TFbLVVbo4ynpfESkBB-99">
          <mxGeometry relative="1" as="geometry">
            <Array as="points">
              <mxPoint x="103" y="313" />
            </Array>
          </mxGeometry>
        </mxCell>
        <mxCell id="K6TFbLVVbo4ynpfESkBB-209" value="1" style="edgeLabel;resizable=0;labelBackgroundColor=none;fontSize=12;align=right;verticalAlign=top;" vertex="1" parent="K6TFbLVVbo4ynpfESkBB-208">
          <mxGeometry x="-1" relative="1" as="geometry" />
        </mxCell>
        <mxCell id="K6TFbLVVbo4ynpfESkBB-210" value="0..*" style="edgeLabel;resizable=0;labelBackgroundColor=none;fontSize=12;align=left;verticalAlign=bottom;" vertex="1" parent="K6TFbLVVbo4ynpfESkBB-208">
          <mxGeometry x="1" relative="1" as="geometry" />
        </mxCell>
        <mxCell id="K6TFbLVVbo4ynpfESkBB-211" value="manages" style="curved=1;startArrow=none;endArrow=none;exitX=0.9989749268989343;exitY=0.6505133452635314;entryX=0.6493102202542343;entryY=-0.0018691927473121713;rounded=0;" edge="1" parent="1" source="K6TFbLVVbo4ynpfESkBB-173" target="K6TFbLVVbo4ynpfESkBB-110">
          <mxGeometry relative="1" as="geometry">
            <Array as="points">
              <mxPoint x="867" y="313" />
              <mxPoint x="867" y="990" />
            </Array>
          </mxGeometry>
        </mxCell>
        <mxCell id="K6TFbLVVbo4ynpfESkBB-212" value="1" style="edgeLabel;resizable=0;labelBackgroundColor=none;fontSize=12;align=left;verticalAlign=top;" vertex="1" parent="K6TFbLVVbo4ynpfESkBB-211">
          <mxGeometry x="-1" relative="1" as="geometry" />
        </mxCell>
        <mxCell id="K6TFbLVVbo4ynpfESkBB-213" value="0..*" style="edgeLabel;resizable=0;labelBackgroundColor=none;fontSize=12;align=right;verticalAlign=bottom;" vertex="1" parent="K6TFbLVVbo4ynpfESkBB-211">
          <mxGeometry x="1" relative="1" as="geometry" />
        </mxCell>
        <mxCell id="K6TFbLVVbo4ynpfESkBB-214" value="manages" style="curved=1;startArrow=none;endArrow=none;exitX=0.07643187473697603;exitY=1;entryX=0.7107825198566683;entryY=-0.0007117464873290147;rounded=0;" edge="1" parent="1" source="K6TFbLVVbo4ynpfESkBB-173" target="K6TFbLVVbo4ynpfESkBB-119">
          <mxGeometry relative="1" as="geometry">
            <Array as="points">
              <mxPoint x="412" y="313" />
              <mxPoint x="412" y="641" />
            </Array>
          </mxGeometry>
        </mxCell>
        <mxCell id="K6TFbLVVbo4ynpfESkBB-215" value="1" style="edgeLabel;resizable=0;labelBackgroundColor=none;fontSize=12;align=right;verticalAlign=top;" vertex="1" parent="K6TFbLVVbo4ynpfESkBB-214">
          <mxGeometry x="-1" relative="1" as="geometry" />
        </mxCell>
        <mxCell id="K6TFbLVVbo4ynpfESkBB-216" value="0..*" style="edgeLabel;resizable=0;labelBackgroundColor=none;fontSize=12;align=left;verticalAlign=bottom;" vertex="1" parent="K6TFbLVVbo4ynpfESkBB-214">
          <mxGeometry x="1" relative="1" as="geometry" />
        </mxCell>
        <mxCell id="K6TFbLVVbo4ynpfESkBB-217" value="manages" style="curved=1;startArrow=none;endArrow=none;rounded=0;entryX=0.5;entryY=0;entryDx=0;entryDy=0;" edge="1" parent="1" target="K6TFbLVVbo4ynpfESkBB-148">
          <mxGeometry relative="1" as="geometry">
            <Array as="points">
              <mxPoint x="630" y="240" />
            </Array>
            <mxPoint x="590" y="180" as="sourcePoint" />
            <mxPoint x="810" y="680" as="targetPoint" />
          </mxGeometry>
        </mxCell>
        <mxCell id="K6TFbLVVbo4ynpfESkBB-218" value="1" style="edgeLabel;resizable=0;labelBackgroundColor=none;fontSize=12;align=left;verticalAlign=top;" vertex="1" parent="K6TFbLVVbo4ynpfESkBB-217">
          <mxGeometry x="-1" relative="1" as="geometry" />
        </mxCell>
        <mxCell id="K6TFbLVVbo4ynpfESkBB-219" value="0..*" style="edgeLabel;resizable=0;labelBackgroundColor=none;fontSize=12;align=right;verticalAlign=bottom;" vertex="1" parent="K6TFbLVVbo4ynpfESkBB-217">
          <mxGeometry x="1" relative="1" as="geometry" />
        </mxCell>
        <mxCell id="K6TFbLVVbo4ynpfESkBB-220" value="manages" style="curved=1;startArrow=none;endArrow=none;exitX=0.4996839313837834;exitY=1;entryX=0.8009696318538666;entryY=-0.0010417203108469646;rounded=0;" edge="1" parent="1" source="K6TFbLVVbo4ynpfESkBB-173" target="K6TFbLVVbo4ynpfESkBB-158">
          <mxGeometry relative="1" as="geometry">
            <Array as="points">
              <mxPoint x="504" y="990" />
            </Array>
          </mxGeometry>
        </mxCell>
        <mxCell id="K6TFbLVVbo4ynpfESkBB-221" value="1" style="edgeLabel;resizable=0;labelBackgroundColor=none;fontSize=12;align=right;verticalAlign=top;" vertex="1" parent="K6TFbLVVbo4ynpfESkBB-220">
          <mxGeometry x="-1" relative="1" as="geometry" />
        </mxCell>
        <mxCell id="K6TFbLVVbo4ynpfESkBB-222" value="0..*" style="edgeLabel;resizable=0;labelBackgroundColor=none;fontSize=12;align=left;verticalAlign=bottom;" vertex="1" parent="K6TFbLVVbo4ynpfESkBB-220">
          <mxGeometry x="1" relative="1" as="geometry" />
        </mxCell>
      </root>
    </mxGraphModel>
  </diagram>
</mxfile>
